<?xml version="1.0" standalone="no"?>
<!DOCTYPE svg PUBLIC "-//W3C//DTD SVG 20010904//EN"
 "http://www.w3.org/TR/2001/REC-SVG-20010904/DTD/svg10.dtd">
<svg version="1.0" xmlns="http://www.w3.org/2000/svg"
 width="967.000000pt" height="967.000000pt" viewBox="0 0 967.000000 967.000000"
 preserveAspectRatio="xMidYMid meet">

<g transform="translate(0.000000,967.000000) scale(0.100000,-0.100000)"
fill="#000000" stroke="none">
<path d="M3390 8295 c-91 -41 -509 -227 -930 -414 -658 -292 -773 -346 -825
-388 -262 -214 -948 -777 -1020 -838 -99 -83 -97 -81 -168 -280 -153 -433
-231 -839 -258 -1334 -23 -407 25 -896 125 -1300 40 -161 76 -294 80 -299 2
-1 386 -3 853 -2 665 0 888 -3 1024 -14 96 -8 312 -25 482 -38 169 -12 307
-25 307 -28 0 -4 -198 -91 -441 -195 -316 -136 -436 -191 -423 -196 11 -4 141
-31 289 -59 149 -29 277 -54 285 -56 11 -4 -423 -185 -667 -278 -9 -4 -14 -8
-12 -10 2 -3 119 -18 259 -35 140 -17 272 -34 294 -37 l39 -6 -34 -21 c-81
-51 -1158 -755 -1185 -774 l-29 -22 65 -66 c684 -701 1609 -1175 2585 -1324
256 -39 364 -46 705 -46 328 0 409 5 660 41 519 73 1043 247 1518 501 l142 77
60 186 c32 102 93 292 134 424 l76 238 0 239 c0 131 3 240 8 243 4 2 58 -43
120 -101 l112 -105 0 59 c0 32 -13 337 -29 678 l-29 621 -55 139 c-30 77 -120
302 -200 500 -166 411 -402 998 -506 1255 -38 96 -69 175 -68 176 1 2 43 -37
93 -84 393 -378 477 -457 484 -460 3 -1 45 95 91 215 l84 218 261 66 c144 36
267 70 275 75 31 19 606 463 618 477 16 20 32 -7 -182 293 l-177 250 -352 269
-351 270 -314 363 c-282 324 -321 366 -371 391 -32 16 -316 150 -632 298
l-575 270 -875 22 c-481 12 -960 24 -1065 27 l-190 4 -165 -75z m2400 -1645
l0 -100 -105 0 -105 0 0 100 0 100 105 0 105 0 0 -100z"/>
</g>
</svg>
